<?xml version="1.0" standalone="no"?>
<!DOCTYPE svg PUBLIC "-//W3C//DTD SVG 20010904//EN"
 "http://www.w3.org/TR/2001/REC-SVG-20010904/DTD/svg10.dtd">
<svg version="1.0" xmlns="http://www.w3.org/2000/svg"
 width="740.000000pt" height="678.000000pt" viewBox="0 0 740.000000 678.000000"
 preserveAspectRatio="xMidYMid meet">

<g transform="translate(0.000000,678.000000) scale(0.100000,-0.100000)"
fill="#000000" stroke="none">
<path d="M4620 5869 c-45 -14 -73 -34 -200 -144 -58 -50 -171 -146 -252 -213
-183 -152 -229 -204 -308 -345 -35 -62 -75 -125 -88 -142 -30 -36 -82 -143
-82 -167 0 -36 126 -62 185 -39 13 5 28 3 42 -7 57 -36 266 41 380 141 19 17
68 74 108 127 40 52 93 115 119 138 50 46 148 97 206 107 l35 5 50 -86 c153
-267 186 -346 210 -507 19 -123 37 -183 80 -262 62 -113 154 -198 296 -274 68
-37 78 -40 105 -29 33 12 68 7 99 -16 19 -14 18 -14 -14 -13 -31 2 -34 -1 -47
-43 -8 -25 -14 -69 -14 -97 l0 -53 44 0 c52 0 56 7 56 91 0 32 1 59 3 59 2 0
61 -16 131 -35 212 -58 235 -72 436 -271 l176 -174 31 12 c30 11 30 12 16 46
-11 26 -12 41 -3 68 11 31 45 67 72 76 8 3 6 12 -5 28 -33 48 -15 105 44 135
24 13 28 19 19 35 -5 10 -10 37 -10 59 0 49 43 104 95 121 29 10 34 16 37 48
3 36 -2 42 -153 192 -86 85 -190 198 -231 250 -205 263 -390 571 -462 770 -15
41 -46 113 -69 160 -68 137 -95 149 -392 170 -82 6 -242 26 -355 45 -239 39
-342 48 -390 34z"/>
<path d="M6690 4245 c0 -27 9 -32 28 -13 8 8 9 15 1 25 -17 20 -29 15 -29 -12z"/>
<path d="M1755 4167 c-64 -25 -61 0 -39 -272 8 -102 -15 -267 -57 -401 -40
-126 -37 -205 8 -304 17 -36 41 -89 53 -117 12 -29 26 -50 31 -47 5 3 6 -1 4
-8 -3 -8 13 -54 35 -103 23 -50 47 -103 55 -120 113 -249 179 -381 214 -429
24 -32 45 -55 49 -52 3 3 -4 16 -15 29 -11 12 -20 29 -21 37 0 8 -14 58 -31
110 -17 52 -31 99 -31 105 0 6 -11 34 -25 62 -13 28 -33 77 -44 110 -19 57
-35 96 -70 178 -23 52 -73 173 -107 255 -33 83 -46 220 -20 220 9 0 16 6 16
14 0 8 16 47 37 87 36 73 63 144 105 269 12 36 22 66 23 68 1 1 15 -4 31 -13
33 -17 60 -19 68 -6 4 5 9 30 13 56 5 38 2 51 -16 76 -12 16 -17 29 -11 29 14
0 -15 69 -42 97 -11 12 -34 25 -51 29 -17 3 -43 15 -57 25 -34 24 -69 29 -105
16z"/>
<path d="M6594 4146 c-25 -25 -34 -43 -34 -68 0 -32 23 -79 33 -68 2 3 22 42
44 88 l40 82 -24 0 c-15 0 -39 -14 -59 -34z"/>
<path d="M227 4144 c-9 -9 51 -109 65 -109 7 0 13 7 13 15 0 8 -6 14 -13 12
-8 -1 -11 2 -7 8 10 17 -6 34 -17 19 -7 -11 -8 -9 -4 4 10 31 -18 69 -37 51z"/>
<path d="M2040 3976 c8 -10 14 -33 13 -50 l-2 -31 8 30 c7 29 7 28 15 -19 5
-33 11 -45 18 -38 14 14 -10 77 -41 105 -18 15 -21 16 -11 3z"/>
<path d="M6533 3960 c-41 -24 -51 -61 -28 -96 9 -14 20 -22 24 -18 7 8 51 120
51 130 0 9 -16 3 -47 -16z"/>
<path d="M340 3935 c0 -19 52 -125 61 -125 20 0 18 25 -7 80 -25 55 -54 80
-54 45z"/>
<path d="M5311 3924 c0 -11 3 -14 6 -6 3 7 2 16 -1 19 -3 4 -6 -2 -5 -13z"/>
<path d="M1232 3870 c0 -14 2 -19 5 -12 2 6 2 18 0 25 -3 6 -5 1 -5 -13z"/>
<path d="M2097 3853 c-4 -3 -7 -25 -6 -47 l1 -41 9 44 c9 45 8 56 -4 44z"/>
<path d="M1241 3804 c0 -11 3 -14 6 -6 3 7 2 16 -1 19 -3 4 -6 -2 -5 -13z"/>
<path d="M2112 3790 c0 -19 2 -27 5 -17 2 9 2 25 0 35 -3 9 -5 1 -5 -18z"/>
<path d="M6471 3784 c-24 -20 -31 -34 -31 -63 0 -20 6 -46 14 -56 13 -18 16
-13 36 55 12 41 24 78 27 83 10 16 -17 5 -46 -19z"/>
<path d="M446 3742 c-7 -11 38 -117 53 -126 21 -14 20 16 -3 71 -24 57 -39 73
-50 55z"/>
<path d="M1262 3650 c0 -19 2 -27 5 -17 2 9 2 25 0 35 -3 9 -5 1 -5 -18z"/>
<path d="M2090 3645 c0 -5 5 -17 10 -25 5 -8 10 -10 10 -5 0 6 -5 17 -10 25
-5 8 -10 11 -10 5z"/>
<path d="M6413 3613 c-19 -7 -16 -27 7 -48 24 -21 25 -20 35 23 6 27 4 32 -12
31 -10 0 -24 -3 -30 -6z"/>
<path d="M2086 3575 c-3 -9 -6 -22 -5 -28 0 -7 5 -1 10 12 5 13 8 26 5 28 -2
2 -6 -3 -10 -12z"/>
<path d="M536 3551 c-10 -15 32 -101 49 -101 20 0 19 9 -5 64 -19 44 -33 56
-44 37z"/>
<path d="M2071 3374 c-1 -97 0 -103 38 -180 39 -82 83 -138 183 -235 32 -31
58 -60 58 -65 0 -23 48 -95 116 -174 40 -47 114 -132 163 -190 50 -58 91 -109
91 -113 0 -5 18 -34 39 -65 22 -32 43 -69 46 -83 8 -34 78 -118 117 -142 52
-31 45 -7 -13 47 -71 65 -86 89 -95 151 -10 76 -13 88 -26 120 -31 78 -121
184 -229 270 -116 92 -211 199 -209 232 2 21 -23 103 -31 103 -5 0 -9 3 -9 8
0 4 -36 44 -80 89 -90 91 -122 150 -144 259 l-14 69 -1 -101z"/>
<path d="M617 3364 c-3 -3 -4 -11 -2 -17 2 -7 6 -24 9 -39 4 -17 13 -28 22
-28 12 0 15 6 10 23 -3 12 -6 32 -6 45 0 20 -19 30 -33 16z"/>
<path d="M2080 3186 c0 -2 11 -24 25 -47 14 -24 25 -39 25 -32 0 12 -39 83
-46 83 -2 0 -4 -2 -4 -4z"/>
<path d="M2326 3118 c-9 -12 -16 -25 -16 -29 0 -3 21 -35 48 -70 40 -55 51
-64 79 -64 17 0 29 3 27 6 -2 4 7 14 20 23 14 8 26 23 29 33 2 10 3 2 0 -17
l-3 -35 14 25 c20 33 20 32 -8 65 -14 16 -22 33 -19 38 3 6 1 7 -5 3 -6 -3
-15 2 -21 11 -6 10 -11 14 -11 10 0 -5 -10 -1 -22 7 -34 24 -94 21 -112 -6z"/>
<path d="M4991 3084 c0 -11 3 -14 6 -6 3 7 2 16 -1 19 -3 4 -6 -2 -5 -13z"/>
<path d="M2520 3066 c0 -2 7 -7 16 -10 8 -3 12 -2 9 4 -6 10 -25 14 -25 6z"/>
<path d="M2556 3016 c15 -23 76 -76 88 -76 3 0 2 8 -1 18 -6 15 -5 16 13 2 14
-10 12 -7 -4 12 -15 17 -31 24 -45 22 -12 -2 -16 -2 -9 2 9 4 5 11 -12 25 -34
27 -50 24 -30 -5z"/>
<path d="M2810 2846 c0 -2 8 -10 18 -17 15 -13 16 -12 3 4 -13 16 -21 21 -21
13z"/>
<path d="M2850 2815 c0 -8 91 -65 104 -65 5 0 -10 13 -35 28 -67 42 -69 44
-69 37z"/>
<path d="M2970 2745 c0 -2 18 -14 40 -25 22 -11 40 -18 40 -15 0 2 -18 14 -40
25 -22 11 -40 18 -40 15z"/>
<path d="M3225 2596 c10 -14 23 -26 31 -26 7 0 30 -18 50 -40 21 -22 44 -40
51 -40 8 0 11 -5 8 -10 -4 -6 -2 -9 3 -8 6 2 25 -13 44 -33 18 -19 24 -24 13
-10 -35 46 -98 106 -158 150 -49 36 -56 39 -42 17z"/>
<path d="M3453 2372 c1 -14 5 -18 11 -12 7 7 6 14 -1 21 -9 9 -12 7 -10 -9z"/>
<path d="M3495 2326 c10 -14 19 -26 22 -26 7 0 -17 39 -28 46 -6 3 -3 -5 6
-20z"/>
<path d="M2213 2226 c27 -25 53 -46 58 -46 5 0 -7 14 -28 32 -66 56 -80 62
-30 14z"/>
<path d="M2345 2120 c10 -11 20 -20 23 -20 3 0 -3 9 -13 20 -10 11 -20 20 -23
20 -3 0 3 -9 13 -20z"/>
<path d="M2384 2109 c-3 -6 -2 -15 3 -20 5 -5 9 -1 9 11 0 23 -2 24 -12 9z"/>
<path d="M3600 2067 c0 -20 5 -39 11 -42 7 -5 8 5 3 32 -9 51 -14 54 -14 10z"/>
<path d="M2455 2020 c21 -22 41 -40 44 -40 3 0 -13 18 -34 40 -21 22 -41 40
-44 40 -3 0 13 -18 34 -40z"/>
<path d="M3622 1980 c0 -19 2 -27 5 -17 2 9 2 25 0 35 -3 9 -5 1 -5 -18z"/>
<path d="M2630 1855 c47 -47 87 -85 90 -85 2 0 -33 38 -80 85 -47 47 -87 85
-90 85 -2 0 33 -38 80 -85z"/>
<path d="M3632 1910 c0 -19 2 -27 5 -17 2 9 2 25 0 35 -3 9 -5 1 -5 -18z"/>
<path d="M3644 1750 c0 -52 1 -74 3 -47 2 26 2 68 0 95 -2 26 -3 4 -3 -48z"/>
<path d="M2805 1670 c38 -38 72 -70 74 -70 3 0 -26 32 -64 70 -38 39 -72 70
-74 70 -3 0 26 -31 64 -70z"/>
<path d="M3633 1560 c0 -41 2 -58 4 -37 2 20 2 54 0 75 -2 20 -4 3 -4 -38z"/>
<path d="M2903 1515 c0 -22 2 -30 4 -17 2 12 2 30 0 40 -3 9 -5 -1 -4 -23z"/>
<path d="M2877 1458 c-21 -16 -78 -164 -70 -184 3 -8 15 -14 26 -14 12 0 64
-9 117 -19 52 -11 156 -31 230 -45 74 -14 193 -37 263 -51 155 -30 159 -30
174 -6 19 30 37 201 24 214 -6 6 -12 36 -13 67 l-2 55 -3 -52 -4 -52 -37 5
c-20 3 -57 9 -82 14 -88 18 -550 80 -590 80 -9 0 -24 -6 -33 -12z"/>
<path d="M3101 1466 c2 -2 31 -6 64 -9 39 -4 50 -3 30 2 -31 9 -102 14 -94 7z"/>
<path d="M4125 1309 c-175 -32 -209 -42 -213 -64 -6 -38 -13 -50 -20 -38 -11
17 -92 19 -127 2 -28 -13 -30 -18 -32 -79 -1 -43 1 -58 6 -45 9 19 9 19 17 1
4 -11 2 -27 -5 -39 -10 -16 -11 -40 -2 -111 6 -50 16 -136 22 -191 5 -55 17
-154 25 -220 8 -66 16 -147 19 -180 12 -130 26 -242 37 -292 l11 -53 585 0
c651 0 587 -7 566 59 -4 13 0 20 15 24 13 3 21 13 21 26 0 26 -29 43 -53 30
-13 -8 -17 -6 -17 5 0 8 -6 21 -13 28 -13 13 -27 47 -82 198 -15 41 -40 104
-55 140 -53 123 -102 245 -110 275 -13 50 -52 150 -62 156 -4 3 -17 30 -28 60
-34 95 -61 156 -55 124 4 -22 3 -26 -5 -15 -5 8 -10 28 -10 45 0 16 -10 55
-22 86 l-22 58 -63 11 c-34 6 -75 8 -90 5 -23 -4 -24 -4 -8 4 36 17 -122 10
-230 -10z m-105 -39 c-8 -5 -24 -9 -35 -9 -16 1 -16 2 5 9 35 11 48 11 30 0z
m-216 -75 c-4 -8 0 -23 7 -32 13 -14 11 -16 -13 -11 -26 5 -28 3 -29 -26 0
-26 -2 -28 -9 -11 -5 11 -9 32 -9 47 -1 25 2 28 56 47 1 1 0 -6 -3 -14z m26
-74 c0 -11 -26 -22 -34 -14 -12 12 -5 23 14 23 11 0 20 -4 20 -9z"/>
<path d="M3860 1251 c-24 -7 -24 -8 8 -12 22 -4 32 -2 32 8 0 14 -3 15 -40 4z"/>
<path d="M2787 1213 c-2 -10 -14 -42 -26 -70 -11 -29 -16 -53 -11 -53 6 0 10
9 10 19 0 11 7 27 16 35 8 9 18 32 21 51 6 36 -1 48 -10 18z"/>
<path d="M2707 1013 c-2 -10 -8 -27 -13 -38 -7 -17 -6 -18 7 -5 8 7 16 24 17
37 2 27 -4 30 -11 6z"/>
<path d="M3581 968 c1 -55 5 -50 11 15 2 20 0 37 -4 37 -4 0 -7 -24 -7 -52z"/>
<path d="M2667 916 c-3 -8 0 -17 7 -19 10 -4 12 1 9 14 -6 23 -9 24 -16 5z"/>
<path d="M4711 897 c-17 -21 -3 -49 23 -45 15 2 21 10 21 28 0 28 -26 38 -44
17z"/>
<path d="M3572 870 c0 -19 2 -27 5 -17 2 9 2 25 0 35 -3 9 -5 1 -5 -18z"/>
<path d="M2580 869 c-14 -25 -16 -22 40 -38 25 -7 65 -23 90 -35 163 -83 462
-147 705 -150 77 -1 146 -5 153 -9 17 -11 16 43 -1 67 -11 15 -40 18 -217 26
-113 5 -230 14 -260 20 -107 22 -185 42 -196 51 -6 5 -13 6 -16 4 -6 -6 -25 0
-162 60 -73 31 -121 33 -136 4z"/>
<path d="M3561 794 c0 -11 3 -14 6 -6 3 7 2 16 -1 19 -3 4 -6 -2 -5 -13z"/>
<path d="M3562 750 c0 -14 2 -19 5 -12 2 6 2 18 0 25 -3 6 -5 1 -5 -13z"/>
<path d="M4894 576 c-10 -26 4 -48 28 -44 17 2 23 10 23 28 0 18 -6 26 -23 28
-13 2 -25 -3 -28 -12z"/>
<path d="M3613 250 c0 -25 2 -35 4 -22 2 12 2 32 0 45 -2 12 -4 2 -4 -23z"/>
</g>
</svg>
